# xmcd CD database file
#
# Track frame offsets:
#	150
#	10620
#	23929
#	36516
#	49120
#	60027
#	72086
#	84819
#	95729
#	115401
#	127092
#	141902
#
# Disc length: 2062 seconds
#
# Revision: 0
# Processed by: cddbd v1.5PL3 Copyright (c) Steve Scherf et al.
# Submitted via: CDex 1.51
#
DISCID=9c080c0c
DTITLE=The Monkees - Best Selection
DYEAR=1995
DGENRE=Pop
TTITLE0=(Theme From) The Monkees
TTITLE1=Daydream Believer
TTITLE2=Last Train To Clarksvlle
TTITLE3=I'm A Believer
TTITLE4=(I'm Not Your) Stepping Stone
TTITLE5=She
TTITLE6=A Little Bit Me, A Little Bit You
TTITLE7=I Wanna Be Free
TTITLE8=Star Collector
TTITLE9=Take A Giant Step
TTITLE10=Pleasant Valley Sunday
TTITLE11=Words
EXTD=YEAR: 1995
EXTT0=
EXTT1=
EXTT2=
EXTT3=
EXTT4=
EXTT5=
EXTT6=
EXTT7=
EXTT8=
EXTT9=
EXTT10=
EXTT11=
PLAYORDER=
